<svg id="Layer_1" data-name="Layer 1" xmlns="http://www.w3.org/2000/svg" viewBox="0 0 183.33 39.29"><defs><style>.cls-1{fill:#fff;}.cls-2{fill:#da2128;}</style></defs><title>1r_logo_white</title><path class="cls-1" d="M40.49,32.44h-3.9L30.24,20.66Q37,17.6,37,11a11.26,11.26,0,0,0-2.93-7.6Q31.14,0,24.49,0H16.9V6.6h4a6.57,6.57,0,0,1,4.06,1.12,4,4,0,0,1,1.47,3.39q0,4.61-6.46,4.61h-3V22h4L29.75,39H40.49Z"/><path class="cls-1" d="M42.79,39v-6.6h5.92V6.6H42.79V0H64.85V6.6h-6V32.44h6V39Z"/><path class="cls-1" d="M83.85,39.29,72.23,6.6H67.57V0H87.5V6.6h-5L89,26.16,95.59,6.6h-5V0H107.9V6.6h-4.74L92,39.29Z"/><path class="cls-1" d="M110.73,39v-6.6h4.68V6.6h-4.68V0h34.4V12.38h-7.46V6.6h-12.1v9h9.77v6.6h-9.77V32.44h12.1V26.61h7.46V39Z"/><path class="cls-1" d="M154.65,39v-6.6h5.87V6.6h-5.87v9.09h-6.71V0h35.39V15.69h-6.62V6.6h-6V32.44h5.86V39Z"/><path class="cls-2" d="M.34,39V32.78H5.73V6.26H0V0H14.31V32.78h5.11V39Z"/></svg>